<svg width="80" height="80" viewBox="0 0 80 80" fill="none" xmlns="http://www.w3.org/2000/svg">
<circle cx="40" cy="40" r="40" fill="#0A86FF" fill-opacity="0.2"/>
<path d="M27.913 38.0435C27.5791 38.0435 27.2452 37.9157 26.9909 37.6613C26.4809 37.1513 26.4809 36.327 26.9909 35.817L35.9987 26.8091C36.5087 26.2991 37.333 26.2991 37.843 26.8091C38.353 27.3191 38.353 28.1435 37.843 28.6535L28.8352 37.6613C28.5809 37.9157 28.247 38.0435 27.913 38.0435Z" fill="#0A86FF"/>
<path d="M38.6739 31.5217C38.4196 31.5217 38.1691 31.4226 37.9826 31.2348L33.4174 26.6696C33.137 26.3904 33.0535 25.9691 33.2048 25.6039C33.3561 25.2387 33.7135 25 34.1087 25H38.6739C39.2139 25 39.6522 25.4383 39.6522 25.9783V30.5435C39.6522 30.9387 39.4135 31.2961 39.0483 31.4474C38.927 31.497 38.8004 31.5217 38.6739 31.5217Z" fill="#0A86FF"/>
<path d="M33.1304 43.587V51.087H25.3043V43.587C25.3043 42.687 26.0348 41.9565 26.9348 41.9565H31.5C32.4 41.9565 33.1304 42.687 33.1304 43.587Z" fill="#0A86FF"/>
<path d="M43.5652 38.3696V51.087H35.7391V38.3696C35.7391 37.4696 36.4696 36.7391 37.3696 36.7391H41.9348C42.8348 36.7391 43.5652 37.4696 43.5652 38.3696Z" fill="#0A86FF"/>
<path d="M54 33.1522V51.087H46.1739V33.1522C46.1739 32.2522 46.9044 31.5217 47.8044 31.5217H52.3696C53.2696 31.5217 54 32.2522 54 33.1522Z" fill="#0A86FF"/>
<path d="M54.3261 55H24.9783C24.4383 55 24 54.5617 24 54.0217C24 53.4817 24.4383 53.0435 24.9783 53.0435H54.3261C54.8661 53.0435 55.3044 53.4817 55.3044 54.0217C55.3044 54.5617 54.8661 55 54.3261 55Z" fill="#0A86FF"/>
</svg>
