<svg width="153" height="30" viewBox="0 0 153 30" fill="none" xmlns="http://www.w3.org/2000/svg">
<path d="M78.9419 14.5706C77.6903 14.5706 76.7881 14.9811 75.8733 15.3992V24.8604C76.7495 24.9439 77.2518 24.9439 78.0832 24.9439C81.0873 24.9439 81.4991 23.5681 81.4991 21.6473V17.1285C81.4991 15.71 81.0283 14.5706 78.9419 14.5706ZM58.991 14.0543C56.9067 14.0543 56.431 15.1985 56.431 16.6157V17.412H61.5482V16.6157C61.5482 15.1985 61.0725 14.0543 58.991 14.0543ZM20.3422 23.9021C20.3422 25.0232 20.8712 25.6054 22.0386 25.6054C23.2908 25.6054 24.0324 25.1971 24.9465 24.7776V22.5333H22.2083C20.9119 22.5333 20.3422 22.7747 20.3422 23.9021ZM98.3491 14.5706C96.2613 14.5706 95.5379 15.71 95.5379 17.1285V22.3053C95.5379 23.7274 96.2613 24.8702 98.3491 24.8702C100.431 24.8702 101.16 23.7274 101.16 22.3053V17.1285C101.16 15.71 100.431 14.5706 98.3491 14.5706ZM10.1107 29.7068H3.97346V14.852H0.906952V9.73341H3.97416V6.65918C3.97416 2.48281 5.7049 0 10.6242 0H14.7199V5.11997H12.1599C10.2447 5.11997 10.1184 5.83556 10.1184 7.17062L10.1107 9.73271H14.748L14.2057 14.8513H10.1107V29.7068ZM31.0851 29.7453H25.9701L25.7491 28.4517C23.4136 29.7453 21.3293 29.9551 19.9542 29.9551C16.203 29.9551 14.2064 27.4491 14.2064 23.9834C14.2064 19.8948 16.5362 18.4355 20.7042 18.4355H24.9465V17.5516C24.9465 15.4644 24.7073 14.852 21.4977 14.852H16.25L16.7629 9.73341H22.4988C29.541 9.73341 31.0851 11.958 31.0851 17.593V29.7453ZM48.4789 15.2273C45.2959 14.6815 44.3818 14.5615 42.8503 14.5615C40.0995 14.5615 39.2681 15.1684 39.2681 17.5046V21.9237C39.2681 24.2599 40.0995 24.8695 42.8503 24.8695C44.3818 24.8695 45.2959 24.7474 48.4789 24.1995V29.1925C45.6909 29.8176 43.8745 29.9818 42.3395 29.9818C35.7505 29.9818 33.1316 26.5168 33.1316 21.5112V17.9255C33.1316 12.9157 35.7505 9.44437 42.3395 9.44437C43.8745 9.44437 45.6909 9.60923 48.4789 10.2371V15.2273ZM67.6847 21.5112H56.4303V21.9237C56.4303 24.2599 57.2624 24.8695 60.0125 24.8695C62.4848 24.8695 63.9938 24.7474 67.1712 24.1995V29.1925C64.1068 29.8176 62.51 29.9818 59.5038 29.9818C52.9141 29.9818 50.2938 26.5168 50.2938 21.5112V17.4113C50.2938 13.0314 52.2378 9.44437 58.9903 9.44437C65.7428 9.44437 67.6847 12.99 67.6847 17.4113V21.5112ZM87.6349 21.6059C87.6349 26.4438 86.2521 29.9726 77.8755 29.9726C74.8504 29.9726 73.0762 29.7068 69.7375 29.1932V1.53781L75.8726 0.514243V10.188C77.1985 9.69552 78.9145 9.44507 80.4762 9.44507C86.612 9.44507 87.6342 12.1959 87.6342 16.6164V21.6059H87.6349ZM107.302 21.7111C107.302 25.8847 105.579 29.9327 98.3694 29.9327C91.1567 29.9327 89.4014 25.8847 89.4014 21.7111V17.6814C89.4014 13.5057 91.1567 9.457 98.3694 9.457C105.579 9.457 107.302 13.5057 107.302 17.6814V21.7111ZM126.955 21.7111C126.955 25.8847 125.23 29.9327 118.022 29.9327C110.809 29.9327 109.054 25.8847 109.054 21.7111V17.6814C109.054 13.5057 110.809 9.457 118.022 9.457C125.23 9.457 126.955 13.5057 126.955 17.6814V21.7111ZM147.124 29.7068H140.474L134.85 20.3178V29.7068H128.713V1.53711L134.85 0.51354V18.6481L140.474 9.73341H147.124L140.984 19.4619L147.124 29.7068ZM118.001 14.5706C115.917 14.5706 115.193 15.71 115.193 17.1285V22.3053C115.193 23.7274 115.917 24.8702 118.001 24.8702C120.083 24.8702 120.819 23.7274 120.819 22.3053V17.1285C120.819 15.71 120.083 14.5706 118.001 14.5706ZM150.627 26.2032C151.66 26.2032 152.483 27.0457 152.483 28.0981C152.483 29.1666 151.66 30 150.619 30C149.584 30 148.744 29.1666 148.744 28.0981C148.744 27.0457 149.584 26.2032 150.619 26.2032H150.627ZM150.619 26.4978C149.787 26.4978 149.105 27.2141 149.105 28.0981C149.105 28.9982 149.787 29.7053 150.627 29.7053C151.468 29.7138 152.139 28.9982 152.139 28.1065C152.139 27.2148 151.468 26.4978 150.627 26.4978H150.619ZM150.266 29.2009H149.93V27.0864C150.106 27.0619 150.275 27.0373 150.527 27.0373C150.847 27.0373 151.056 27.1047 151.185 27.1966C151.309 27.2899 151.376 27.4323 151.376 27.6337C151.376 27.9129 151.192 28.0805 150.965 28.1486V28.1647C151.15 28.1991 151.275 28.3661 151.318 28.6769C151.367 29.0059 151.418 29.1315 151.451 29.2002H151.098C151.049 29.1315 150.997 28.9385 150.955 28.66C150.906 28.3913 150.77 28.2903 150.501 28.2903H150.267V29.2009H150.266ZM150.266 28.0307H150.511C150.787 28.0307 151.022 27.929 151.022 27.6673C151.022 27.4821 150.889 27.2976 150.511 27.2976C150.4 27.2976 150.324 27.306 150.266 27.3137V28.0307Z" fill="#706D6E"/>
</svg>
