<svg width="21" height="20" viewBox="0 0 21 20" fill="none" xmlns="http://www.w3.org/2000/svg">
<path d="M5.1875 9.99999C5.1875 9.0091 5.46051 8.08085 5.9348 7.28605V3.91464H2.5634C1.22531 5.65245 0.5 7.77038 0.5 9.99999C0.5 12.2296 1.22531 14.3475 2.5634 16.0853H5.9348V12.7139C5.46051 11.9191 5.1875 10.9909 5.1875 9.99999Z" fill="#FBBD00"/>
<path d="M10.5 15.3125L8.15625 17.6562L10.5 20C12.7296 20 14.8475 19.2747 16.5854 17.9366V14.5688H13.2175C12.4158 15.0448 11.4836 15.3125 10.5 15.3125Z" fill="#0F9D58"/>
<path d="M5.93476 12.7139L2.56335 16.0854C2.82828 16.4294 3.11675 16.7589 3.4289 17.0711C5.31765 18.9598 7.82886 20 10.5 20V15.3125C8.56152 15.3125 6.86257 14.2687 5.93476 12.7139Z" fill="#31AA52"/>
<path d="M20.5 9.99999C20.5 9.39159 20.4449 8.78206 20.3363 8.18839L20.2483 7.70796H10.5V12.3955H15.2442C14.7835 13.3119 14.0752 14.0596 13.2175 14.5688L16.5853 17.9366C16.9294 17.6717 17.2589 17.3832 17.5711 17.0711C19.4598 15.1823 20.5 12.6711 20.5 9.99999Z" fill="#3C79E6"/>
<path d="M14.2565 6.24348L14.6708 6.65777L17.9854 3.34324L17.5711 2.92895C15.6823 1.0402 13.1711 0 10.5 0L8.15625 2.34375L10.5 4.6875C11.919 4.6875 13.2531 5.24008 14.2565 6.24348Z" fill="#CF2D48"/>
<path d="M10.5 4.6875V0C7.8289 0 5.31769 1.0402 3.4289 2.92891C3.11675 3.24105 2.82828 3.57055 2.56335 3.91465L5.93476 7.28605C6.86261 5.73125 8.56156 4.6875 10.5 4.6875Z" fill="#EB4132"/>
</svg>
