<svg width="20" height="20" viewBox="0 0 20 20" fill="none" xmlns="http://www.w3.org/2000/svg">
<path d="M2.5 4.99999C3.8807 4.99999 4.99999 3.8807 4.99999 2.5C4.99999 1.11929 3.8807 0 2.5 0C1.11929 0 0 1.11929 0 2.5C0 3.8807 1.11929 4.99999 2.5 4.99999Z" fill="white"/>
<path d="M0.416679 6.66666H4.58335C4.81347 6.66666 5.00003 6.85323 5.00003 7.08334V19.5833C5.00003 19.8134 4.81347 20 4.58335 20H0.416679C0.186562 20 0 19.8134 0 19.5833V7.0833C0 6.85319 0.186562 6.66666 0.416679 6.66666Z" fill="white"/>
<path d="M17 6.09331C15.1754 5.57339 13.2139 5.89878 11.655 6.97998C11.6077 6.79514 11.4408 6.66604 11.25 6.66667H7.0833C6.85319 6.66667 6.66663 6.85323 6.66663 7.08334V19.5833C6.66663 19.8134 6.85319 20 7.0833 20H11.25C11.4801 20 11.6667 19.8134 11.6667 19.5833V10.6C12.2688 10.0326 13.1393 9.85338 13.9167 10.1367C14.6471 10.4975 15.0784 11.2724 15 12.0833V19.5833C15 19.8134 15.1865 20 15.4166 20H19.5833C19.8134 20 20 19.8134 20 19.5833V11.2442C19.9525 7.81998 18.3416 6.55249 17 6.09331Z" fill="white"/>
</svg>
