<svg width="156" height="30" viewBox="0 0 156 30" fill="none" xmlns="http://www.w3.org/2000/svg">
<path d="M155.8 13.5917V9.80972H151.104V3.93026L150.946 3.97893L146.535 5.32861L146.448 5.35503V9.80993H139.485V7.32817C139.485 6.17258 139.744 5.28826 140.253 4.6985C140.759 4.11582 141.482 3.81958 142.404 3.81958C143.068 3.81958 143.754 3.97581 144.445 4.2839L144.619 4.36129V0.378401L144.537 0.348445C143.893 0.116703 143.016 0 141.929 0C140.559 0 139.314 0.298103 138.229 0.8889C137.143 1.48053 136.288 2.32512 135.69 3.39895C135.093 4.47154 134.791 5.71034 134.791 7.08124V9.80972H131.521V13.5917H134.791V29.5242H139.485V13.5917H146.448V23.7165C146.448 27.8864 148.415 29.9996 152.294 29.9996C152.931 29.9996 153.602 29.9249 154.287 29.7787C154.984 29.6285 155.459 29.4785 155.739 29.3183L155.801 29.2817V25.4648L155.61 25.5911C155.355 25.7608 155.038 25.8996 154.666 26.0028C154.292 26.1078 153.98 26.1604 153.738 26.1604C152.83 26.1604 152.157 25.9156 151.74 25.4324C151.318 24.9447 151.104 24.092 151.104 22.8992V13.5917H155.8ZM121.037 26.1611C119.333 26.1611 117.989 25.5961 117.043 24.4831C116.09 23.3646 115.607 21.7698 115.607 19.7436C115.607 17.6532 116.09 16.017 117.043 14.8787C117.99 13.7479 119.321 13.1739 120.998 13.1739C122.626 13.1739 123.922 13.7221 124.85 14.804C125.783 15.8916 126.257 17.5146 126.257 19.6294C126.257 21.7702 125.811 23.4147 124.934 24.5147C124.062 25.6065 122.751 26.1611 121.037 26.1611ZM121.245 9.3348C117.995 9.3348 115.413 10.2874 113.572 12.166C111.732 14.0449 110.799 16.6451 110.799 19.8949C110.799 22.9816 111.709 25.4644 113.506 27.2732C115.302 29.0826 117.746 29.9992 120.77 29.9992C123.921 29.9992 126.452 29.0333 128.292 27.1286C130.132 25.226 131.064 22.6504 131.064 19.4765C131.064 16.3416 130.19 13.8403 128.464 12.0435C126.737 10.246 124.308 9.3348 121.245 9.3348ZM103.23 9.3348C101.019 9.3348 99.1894 9.90042 97.792 11.0157C96.3862 12.1375 95.6731 13.6089 95.6731 15.3894C95.6731 16.3149 95.827 17.1371 96.1299 17.8344C96.4347 18.534 96.9063 19.1499 97.5328 19.6669C98.1546 20.1797 99.1145 20.7168 100.386 21.2633C101.456 21.7033 102.253 22.0754 102.76 22.3687C103.255 22.6562 103.606 22.9452 103.804 23.2266C103.997 23.5021 104.095 23.879 104.095 24.3442C104.095 25.6687 103.103 26.3131 101.062 26.3131C100.305 26.3131 99.4417 26.155 98.4958 25.8434C97.5566 25.5365 96.6702 25.087 95.8676 24.5108L95.6727 24.371V28.8908L95.7442 28.9241C96.4084 29.2307 97.246 29.4893 98.2331 29.6927C99.2183 29.8964 100.113 30 100.891 30C103.291 30 105.223 29.4317 106.633 28.3098C108.052 27.1802 108.771 25.6741 108.771 23.832C108.771 22.5031 108.384 21.3635 107.621 20.4445C106.863 19.5329 105.548 18.696 103.713 17.9563C102.252 17.3696 101.315 16.8826 100.929 16.5088C100.557 16.1477 100.367 15.637 100.367 14.9902C100.367 14.4169 100.601 13.9576 101.08 13.5856C101.563 13.2118 102.235 13.0217 103.078 13.0217C103.86 13.0217 104.66 13.1452 105.456 13.3874C106.251 13.6295 106.95 13.9538 107.533 14.3505L107.725 14.4816V10.1942L107.651 10.1625C107.113 9.93184 106.404 9.73442 105.542 9.57424C104.685 9.4151 103.907 9.3348 103.23 9.3348ZM83.4346 26.1611C81.7311 26.1611 80.3872 25.5961 79.4407 24.4831C78.488 23.3646 78.0062 21.7702 78.0062 19.7436C78.0062 17.6532 78.4886 16.017 79.4418 14.8787C80.3883 13.7479 81.7186 13.1739 83.397 13.1739C85.0242 13.1739 86.32 13.7221 87.2484 14.804C88.1814 15.8916 88.6547 17.5146 88.6547 19.6294C88.6547 21.7702 88.2093 23.4147 87.3314 24.5147C86.4596 25.6065 85.1492 26.1611 83.4346 26.1611ZM83.6439 9.3348C80.3922 9.3348 77.81 10.2874 75.97 12.166C74.1302 14.0449 73.1968 16.6451 73.1968 19.8949C73.1968 22.9828 74.1079 25.4644 75.9041 27.2732C77.7002 29.0826 80.1443 29.9992 83.1684 29.9992C86.3191 29.9992 88.8504 29.0333 90.6906 27.1286C92.5302 25.226 93.4628 22.6504 93.4628 19.4765C93.4628 16.3416 92.5878 13.8403 90.8614 12.0435C89.1342 10.246 86.7057 9.3348 83.6439 9.3348ZM66.0706 13.2239V9.80972H61.4333V29.5238H66.0706V19.4393C66.0706 17.7245 66.4594 16.3158 67.2266 15.2517C67.984 14.2003 68.9934 13.6676 70.2257 13.6676C70.6435 13.6676 71.1124 13.7364 71.6202 13.8727C72.1227 14.0081 72.4868 14.1552 72.7015 14.31L72.8964 14.4512V9.77602L72.8213 9.74378C72.3894 9.5603 71.7785 9.46773 71.0054 9.46773C69.8401 9.46773 68.7972 9.84218 67.904 10.5794C67.1199 11.2274 66.5532 12.1159 66.1199 13.2239H66.0706ZM53.1286 9.3348C51.0011 9.3348 49.1035 9.791 47.4894 10.6903C45.872 11.5917 44.6212 12.8785 43.7701 14.5149C42.9228 16.1473 42.4926 18.054 42.4926 20.1805C42.4926 22.0432 42.9097 23.7525 43.7341 25.2591C44.559 26.7681 45.7264 27.9486 47.2042 28.7674C48.68 29.5852 50.3856 29.9998 52.2741 29.9998C54.4779 29.9998 56.3595 29.5592 57.8681 28.6903L57.9291 28.6553V24.4068L57.7341 24.5491C57.0508 25.0469 56.2871 25.4442 55.4654 25.7305C54.6458 26.0165 53.8985 26.1611 53.2433 26.1611C51.4236 26.1611 49.9629 25.5917 48.9026 24.4692C47.84 23.3452 47.3012 21.7669 47.3012 19.7809C47.3012 17.7824 47.863 16.1635 48.9704 14.969C50.0744 13.778 51.5378 13.1739 53.3198 13.1739C54.844 13.1739 56.3293 13.6901 57.7346 14.7094L57.9291 14.8506V10.3741L57.8662 10.3387C57.3374 10.0427 56.6162 9.79828 55.7208 9.61293C54.8292 9.42799 53.9572 9.3348 53.1286 9.3348ZM39.2988 9.80993H34.6614V29.5238H39.2988V9.80993ZM37.0275 1.41167C36.2643 1.41167 35.5986 1.6715 35.0517 2.18636C34.5025 2.70269 34.224 3.35277 34.224 4.11998C34.224 4.87511 34.4992 5.51334 35.0432 6.01594C35.5836 6.51707 36.2514 6.77107 37.0277 6.77107C37.8039 6.77107 38.4742 6.51707 39.0211 6.01677C39.5715 5.51334 39.8507 4.87532 39.8507 4.11998C39.8507 3.37961 39.579 2.73618 39.0437 2.20717C38.5089 1.67919 37.8303 1.41167 37.0275 1.41167ZM25.4571 8.35541V29.5238H30.1897V2.01516H23.6395L15.3139 22.4478L7.23432 2.01516H0.41748V29.5236H4.86489V8.35333H5.01758L13.5494 29.5238H16.9057L25.3044 8.35541H25.4571Z" fill="#706D6E"/>
</svg>
