<svg width="114" height="30" viewBox="0 0 114 30" fill="none" xmlns="http://www.w3.org/2000/svg">
<path d="M77.458 8.20223C76.9793 11.3454 74.579 11.3454 72.2578 11.3454H70.9368L71.8637 5.4768C71.9202 5.1223 72.225 4.86149 72.584 4.86149H73.1903C74.7709 4.86149 76.2635 4.8615 77.0335 5.76131C77.493 6.29985 77.6318 7.09919 77.458 8.20223ZM76.4475 0.00111771H67.6909C67.4009 0.00126076 67.1204 0.104773 66.8999 0.293068C66.6793 0.481365 66.533 0.742115 66.4874 1.02851L62.9491 23.4811C62.9328 23.5852 62.9392 23.6916 62.9679 23.7929C62.9966 23.8943 63.0469 23.9883 63.1153 24.0684C63.1837 24.1485 63.2687 24.2129 63.3643 24.2571C63.46 24.3013 63.564 24.3243 63.6694 24.3245H68.1628C68.5817 24.3245 68.9385 24.0196 69.004 23.6064L70.0088 17.2388C70.1014 16.6483 70.6117 16.2114 71.21 16.2114H73.9806C79.7498 16.2114 83.0782 13.4216 83.9475 7.88836C84.3393 5.47003 83.9633 3.56878 82.8309 2.23768C81.5856 0.774487 79.3784 -1.14441e-05 76.4486 -1.14441e-05" fill="#706D6E"/>
<path d="M15.0013 8.20225C14.5226 11.3454 12.1223 11.3454 9.79991 11.3454H8.47897L9.40588 5.47682C9.46234 5.12231 9.76717 4.86152 10.1262 4.86152H10.7325C12.3131 4.86152 13.8056 4.86152 14.5756 5.76134C15.0362 6.29987 15.1751 7.09921 15.0013 8.20225ZM13.9908 0.00113487H5.2342C4.63583 0.00113487 4.12551 0.436932 4.03181 1.02853L0.492367 23.4811C0.475886 23.5852 0.482173 23.6917 0.510792 23.7931C0.539411 23.8946 0.589683 23.9887 0.658145 24.0688C0.726608 24.149 0.811632 24.2133 0.907364 24.2575C1.0031 24.3016 1.10726 24.3245 1.21267 24.3245H5.39452C5.99289 24.3245 6.50208 23.8887 6.59579 23.2971L7.55205 17.24C7.64463 16.6484 8.15495 16.2126 8.75332 16.2126H11.5239C17.2931 16.2126 20.6215 13.4217 21.4908 7.88838C21.8826 5.47005 21.5066 3.5688 20.3742 2.2377C19.1289 0.774506 16.9217 7.62939e-06 13.9919 7.62939e-06L13.9908 0.00113487ZM34.3208 16.2634C33.9144 18.6591 32.0143 20.268 29.588 20.268C28.3721 20.268 27.3978 19.8762 26.7723 19.1356C26.1513 18.4017 25.9188 17.3551 26.1152 16.1911C26.4923 13.8157 28.4252 12.156 30.8141 12.156C32.0052 12.156 32.9705 12.5512 33.6096 13.2986C34.252 14.0516 34.5049 15.1039 34.3208 16.2634ZM40.1646 8.10064H35.9714C35.7971 8.10043 35.6285 8.16256 35.496 8.27582C35.3635 8.38907 35.2758 8.54598 35.2489 8.71821L35.066 9.89012L34.7724 9.46561C33.8647 8.14806 31.8404 7.70661 29.8195 7.70661C25.1872 7.70661 21.23 11.2178 20.46 16.1403C20.0592 18.5982 20.6282 20.9454 22.0214 22.5836C23.3006 24.0885 25.1262 24.7151 27.3018 24.7151C31.0365 24.7151 33.1071 22.3171 33.1071 22.3171L32.9197 23.4822C32.9032 23.5865 32.9095 23.693 32.9382 23.7945C32.9669 23.8961 33.0173 23.9902 33.0859 24.0704C33.1545 24.1505 33.2396 24.2149 33.3355 24.259C33.4314 24.303 33.5357 24.3258 33.6412 24.3256H37.4166C38.0149 24.3256 38.5253 23.8909 38.619 23.2982L40.886 8.94514C40.9023 8.84086 40.8958 8.73428 40.867 8.63275C40.8382 8.53121 40.7877 8.43713 40.719 8.35698C40.6504 8.27682 40.5651 8.2125 40.4692 8.16845C40.3733 8.12439 40.269 8.10164 40.1634 8.10177" fill="#706D6E"/>
<path d="M96.7775 16.2634C96.3711 18.6591 94.471 20.268 92.0448 20.268C90.8288 20.268 89.8545 19.8762 89.229 19.1356C88.6081 18.4017 88.3755 17.3551 88.5719 16.1911C88.949 13.8157 90.8808 12.156 93.2709 12.156C94.462 12.156 95.4273 12.5512 96.0663 13.2986C96.7087 14.0516 96.9616 15.1039 96.7775 16.2634ZM102.621 8.10064H98.4282C98.2538 8.10043 98.0852 8.16256 97.9527 8.27582C97.8202 8.38907 97.7325 8.54598 97.7056 8.71821L97.5227 9.89012L97.2292 9.46561C96.3214 8.14806 94.2971 7.70661 92.2762 7.70661C87.645 7.70661 83.6878 11.2178 82.9167 16.1403C82.5159 18.5982 83.0861 20.9454 84.4793 22.5836C85.7584 24.0885 87.5841 24.7151 89.7597 24.7151C93.4955 24.7151 95.5661 22.3171 95.5661 22.3171L95.3787 23.4822C95.3618 23.5863 95.3678 23.6928 95.3962 23.7944C95.4246 23.8959 95.4748 23.9901 95.5432 24.0703C95.6116 24.1505 95.6967 24.2149 95.7924 24.259C95.8882 24.3031 95.9925 24.3258 96.0979 24.3256H99.8722C100.471 24.3256 100.981 23.8909 101.076 23.2982L103.343 8.94514C103.359 8.84086 103.353 8.73428 103.324 8.63275C103.295 8.53121 103.244 8.43713 103.176 8.35698C103.107 8.27682 103.022 8.2125 102.926 8.16845C102.83 8.12439 102.726 8.10164 102.62 8.10177" fill="#706D6E"/>
<path d="M62.4975 8.10176H58.2818C57.8787 8.10176 57.5027 8.3016 57.2769 8.63578L51.4625 17.1982L48.9979 8.96997C48.9227 8.719 48.7687 8.49892 48.5586 8.34234C48.3486 8.18576 48.0936 8.10101 47.8317 8.10063H43.6893C43.5732 8.10069 43.4587 8.12845 43.3554 8.1816C43.2521 8.23475 43.163 8.31177 43.0955 8.40626C43.0279 8.50076 42.9839 8.60999 42.967 8.72492C42.9501 8.83984 42.9608 8.95713 42.9984 9.06706L47.6386 22.6897L43.2739 28.8484C43.1967 28.9577 43.1511 29.0861 43.142 29.2196C43.1328 29.3531 43.1605 29.4865 43.222 29.6053C43.2835 29.7241 43.3765 29.8238 43.4907 29.8934C43.605 29.963 43.7362 29.9999 43.87 30H48.0812C48.4786 30 48.8523 29.8047 49.0803 29.4773L63.0958 9.24771C63.1719 9.13835 63.2166 9.01025 63.2251 8.87729C63.2335 8.74434 63.2054 8.61161 63.1437 8.49352C63.082 8.37542 62.9892 8.27648 62.8753 8.20741C62.7614 8.13835 62.6307 8.10181 62.4975 8.10176Z" fill="#706D6E"/>
<path d="M107.563 0.618713L103.968 23.4823C103.952 23.5864 103.958 23.6929 103.987 23.7944C104.016 23.8958 104.066 23.9899 104.135 24.07C104.203 24.1501 104.288 24.2145 104.384 24.2586C104.48 24.3027 104.584 24.3256 104.69 24.3256H108.304C108.902 24.3256 109.412 23.8898 109.506 23.2982L113.05 0.844515C113.066 0.740301 113.06 0.633749 113.031 0.532209C113.003 0.430672 112.952 0.336567 112.884 0.256388C112.815 0.176208 112.73 0.111868 112.634 0.0678005C112.538 0.023735 112.434 0.000993729 112.329 0.00114822H108.284C108.11 0.000705719 107.942 0.0626392 107.809 0.175726C107.677 0.288813 107.59 0.445564 107.563 0.617584" fill="#706D6E"/>
</svg>
