<svg width="173" height="30" viewBox="0 0 173 30" fill="none" xmlns="http://www.w3.org/2000/svg">
<path fill-rule="evenodd" clip-rule="evenodd" d="M169.802 24.2264C169.454 24.2199 169.108 24.2829 168.784 24.4117C168.46 24.5405 168.165 24.7326 167.916 24.9767C167.668 25.2209 167.47 25.5121 167.335 25.8335C167.2 26.1548 167.131 26.4999 167.131 26.8484C167.131 27.1969 167.2 27.5419 167.335 27.8633C167.47 28.1846 167.668 28.4759 167.916 28.72C168.165 28.9641 168.46 29.1562 168.784 29.2851C169.108 29.4139 169.454 29.4769 169.802 29.4704C170.147 29.47 170.488 29.4017 170.806 29.2693C171.124 29.137 171.412 28.9432 171.655 28.6991C171.898 28.4549 172.091 28.1653 172.221 27.8467C172.352 27.5281 172.419 27.1868 172.417 26.8424C172.418 26.4989 172.35 26.1587 172.219 25.8414C172.087 25.524 171.895 25.2356 171.652 24.9927C171.409 24.7497 171.121 24.557 170.803 24.4255C170.486 24.2941 170.146 24.2264 169.802 24.2264ZM169.802 29.155C169.499 29.1553 169.198 29.0957 168.918 28.9795C168.638 28.8634 168.383 28.693 168.169 28.4781C167.954 28.2632 167.785 28.008 167.669 27.7273C167.554 27.4466 167.495 27.1459 167.496 26.8424C167.496 26.5399 167.556 26.2404 167.672 25.961C167.788 25.6816 167.958 25.4279 168.172 25.2143C168.387 25.0006 168.641 24.8314 168.92 24.7161C169.2 24.6009 169.5 24.542 169.802 24.5427C170.104 24.5427 170.403 24.6022 170.682 24.7178C170.961 24.8333 171.215 25.0028 171.428 25.2163C171.642 25.4299 171.811 25.6834 171.926 25.9624C172.042 26.2414 172.101 26.5404 172.101 26.8424C172.103 27.1453 172.044 27.4456 171.929 27.7259C171.815 28.0062 171.646 28.2611 171.432 28.476C171.218 28.6908 170.964 28.8614 170.685 28.9779C170.405 29.0944 170.105 29.1546 169.802 29.155Z" fill="#706D6E"/>
<path fill-rule="evenodd" clip-rule="evenodd" d="M171.148 26.1555C171.148 25.9082 171.038 25.6479 170.819 25.5238C170.599 25.3932 170.352 25.3804 170.105 25.3804H168.828V28.3109H169.185V26.9592H169.845L170.681 28.3109H171.107L170.222 26.9592C170.744 26.9445 171.148 26.7321 171.148 26.1555ZM169.734 26.6769H169.184V25.6406H170.021C170.385 25.6406 170.784 25.6958 170.784 26.1491C170.785 26.7458 170.145 26.6769 169.734 26.6769ZM154.433 11.9877L159.794 6.26371C160.104 5.8435 160.259 5.54926 160.259 5.29731C160.259 4.87709 159.897 4.70882 158.761 4.70882H157.408V1.09514H172.049V4.70882H170.125C167.904 4.70882 167.491 5.04444 164.391 8.95237L155.91 18.1107V23.6995C155.91 25.1293 156.632 25.6323 158.699 25.6323H161.901V29.1191H141.395V25.6323H144.597C146.662 25.6323 147.386 25.1293 147.386 23.6995V18.1107L137.397 7.06093C135.746 5.12904 135.974 4.70882 131.379 4.70882V1.09514H149.923V4.70882H148.603C147.26 4.70882 146.69 4.96077 146.69 5.46466C146.69 5.8858 147.103 6.22142 147.362 6.55704L152.415 12.0649C153.016 12.6893 153.749 12.7702 154.433 11.9877ZM30.0071 1.09422H34.4806V11.1776H30.3492C29.9832 9.16202 28.7217 8.37767 27.5713 7.32023C25.496 5.41317 21.0014 3.82517 17.2213 3.82517C12.3424 3.82517 8.22481 5.33869 8.22481 7.5639C8.22481 13.7412 36.1274 8.82547 36.1274 20.5051C36.1274 26.5969 30.1506 30 19.4171 30C15.7014 30 10.0785 28.8469 6.76095 27.0851C5.72098 26.4847 5.27961 27.6534 5.08468 29.1182H0.498151V18.6983H4.64699C5.5619 21.3456 6.82256 21.8908 7.98206 22.9418C9.99395 24.791 14.7828 26.1362 19.1744 26.093C25.7958 26.0277 28.0725 24.5804 28.0725 22.4793C28.0725 20.3791 25.8206 19.8743 18.5647 18.7406L12.404 17.7319C5.45156 16.6809 0.389648 15.1269 0.389648 9.58131C0.389648 3.82517 6.79313 0.211484 16.9179 0.211484C21.1844 0.211484 24.754 0.781586 28.1801 2.71808C29.129 3.33507 30.0191 3.40863 30.0071 1.09422ZM117.309 17.9765L117.398 6.76945C117.398 5.29915 116.633 4.79525 114.447 4.79525H111.879V1.30846H128.218V4.79525H126.089C123.901 4.79525 123.136 5.30007 123.136 6.76945V29.3315L116.741 29.2809L96.0299 9.66867V23.9119C96.0299 25.3408 96.795 25.8861 98.9807 25.8861H101.824V29.3315H84.8542V25.8861H87.6661C89.8517 25.8861 90.6168 25.3399 90.6168 23.9119V6.76945C90.6168 5.29915 89.8517 4.79525 87.6661 4.79525H84.8542V1.30846H99.5259L117.309 17.9765ZM62.5772 0C49.555 0 41.4036 5.75706 41.4036 14.9991C41.4036 24.0756 49.4419 29.7885 62.1799 29.7885C75.7096 29.7885 83.5798 24.1593 83.5798 14.5375C83.5807 5.88304 75.0881 0 62.5772 0ZM62.2811 26.1344C55.073 26.1344 50.9297 21.9745 50.9297 14.7894C50.9297 7.77355 55.2533 3.61368 62.6415 3.61368C69.7291 3.61368 73.8725 7.85815 73.8725 15.0846C73.8725 22.1428 69.6684 26.1344 62.2811 26.1344Z" fill="#706D6E"/>
</svg>
