<svg width="80" height="80" viewBox="0 0 80 80" fill="none" xmlns="http://www.w3.org/2000/svg">
<circle cx="40" cy="40" r="40" fill="#0A86FF" fill-opacity="0.2"/>
<path d="M27.2609 38.0435C25.4635 38.0435 24 39.5069 24 41.3043V51.7391C24 53.5365 25.4635 55 27.2609 55H31.1739C31.9083 55 32.5839 54.7522 33.1304 54.34V38.0435H27.2609Z" fill="#0A86FF"/>
<path d="M55.3044 42.9348C55.3044 42.1509 54.994 41.4204 54.4553 40.8817C55.0644 40.2152 55.3748 39.3217 55.29 38.3917C55.1374 36.7339 53.6439 35.4348 51.8883 35.4348H43.8313C44.2305 34.223 44.8696 32.0017 44.8696 30.2174C44.8696 27.3882 42.4657 25 40.9565 25C39.6013 25 38.6335 25.763 38.5918 25.7943C38.4379 25.9183 38.3479 26.1061 38.3479 26.3043V30.7274L34.5913 38.8652L34.4348 38.9448V52.9248C35.4965 53.4257 36.84 53.6957 37.6957 53.6957H49.6683C51.0887 53.6957 52.3318 52.7383 52.6239 51.417C52.7739 50.7374 52.6866 50.0526 52.3879 49.4578C53.3518 48.9726 54.0001 47.98 54.0001 46.8478C54.0001 46.3861 53.8944 45.9439 53.6936 45.5435C54.6574 45.0583 55.3044 44.0657 55.3044 42.9348Z" fill="#0A86FF"/>
</svg>
