<svg width="25" height="20" viewBox="0 0 25 20" fill="none" xmlns="http://www.w3.org/2000/svg">
<path d="M24.6154 2.36769C23.7 2.76923 22.7246 3.03538 21.7077 3.16462C22.7538 2.54 23.5523 1.55846 23.9277 0.375385C22.9523 0.956923 21.8754 1.36769 20.7277 1.59692C19.8015 0.610769 18.4815 0 17.0415 0C14.2477 0 11.9985 2.26769 11.9985 5.04769C11.9985 5.44769 12.0323 5.83231 12.1154 6.19846C7.92 5.99385 4.20769 3.98308 1.71385 0.92C1.27846 1.67538 1.02308 2.54 1.02308 3.47077C1.02308 5.21846 1.92308 6.76769 3.26462 7.66462C2.45385 7.64923 1.65846 7.41385 0.984615 7.04308C0.984615 7.05846 0.984615 7.07846 0.984615 7.09846C0.984615 9.55077 2.73385 11.5877 5.02769 12.0569C4.61692 12.1692 4.16923 12.2231 3.70462 12.2231C3.38154 12.2231 3.05538 12.2046 2.74923 12.1369C3.40308 14.1354 5.25846 15.6046 7.46462 15.6523C5.74769 16.9954 3.56769 17.8046 1.20769 17.8046C0.793846 17.8046 0.396923 17.7862 0 17.7354C2.23538 19.1769 4.88462 20 7.74154 20C17.0277 20 22.1046 12.3077 22.1046 5.64C22.1046 5.41692 22.0969 5.20154 22.0862 4.98769C23.0877 4.27692 23.9292 3.38923 24.6154 2.36769Z" fill="#4D4D4D"/>
</svg>
