<svg width="92" height="30" viewBox="0 0 92 30" fill="none" xmlns="http://www.w3.org/2000/svg">
<path d="M11.3191 0H12.1364C14.9738 0.0616822 17.7649 1.2028 19.7696 3.2229C19.0294 3.9785 18.2738 4.70327 17.549 5.45888C16.4233 4.44112 15.0663 3.65467 13.586 3.3771C11.3962 2.91448 9.03689 3.33084 7.20185 4.57991C5.19718 5.89065 3.84017 8.11121 3.54718 10.486C3.22335 12.8299 3.88643 15.2972 5.41306 17.1168C6.87802 18.8902 9.114 20.0005 11.4271 20.0776C13.586 20.2009 15.8374 19.5378 17.4103 18.0266C18.6439 16.9626 19.2145 15.3435 19.3995 13.7706C16.8397 13.7706 14.2799 13.786 11.7201 13.7706V10.5939H22.499C23.0542 14.0019 22.2523 17.8416 19.6617 20.278C17.9346 22.0051 15.5444 23.0229 13.1079 23.2234C10.7486 23.4547 8.31213 23.0075 6.21493 21.8663C3.70138 20.5248 1.69671 18.2579 0.709794 15.5902C-0.215439 13.1383 -0.23086 10.3626 0.632692 7.89532C1.41914 5.64392 2.93035 3.65467 4.87334 2.26682C6.73923 0.894392 9.00605 0.138785 11.3191 0Z" fill="#706D6E"/>
<path d="M73.1555 0.80188H76.4555V22.8224C75.3607 22.8224 74.2504 22.8379 73.1555 22.807C73.171 15.4822 73.1555 8.14206 73.1555 0.80188Z" fill="#706D6E"/>
<path d="M29.8392 8.43504C31.8747 8.04953 34.0799 8.4813 35.7607 9.69953C37.2874 10.779 38.3514 12.4752 38.6752 14.3257C39.0916 16.4691 38.5673 18.8131 37.1794 20.5093C35.6836 22.4061 33.2318 23.4238 30.8416 23.2696C28.6518 23.1462 26.5238 22.0514 25.2285 20.2626C23.7635 18.2888 23.4089 15.5748 24.2107 13.2617C25.0126 10.779 27.2794 8.88224 29.8392 8.43504ZM30.3018 11.3649C29.4691 11.5808 28.6981 12.0589 28.143 12.7374C26.6472 14.5262 26.7397 17.4406 28.3897 19.1061C29.3304 20.0621 30.749 20.5093 32.0598 20.2472C33.278 20.0313 34.342 19.214 34.928 18.1346C35.9458 16.2995 35.6528 13.7706 34.0953 12.3364C33.093 11.4112 31.628 11.0257 30.3018 11.3649Z" fill="#706D6E"/>
<path d="M46.185 8.43505C48.5135 7.98785 51.0579 8.63551 52.8005 10.2701C55.6378 12.8145 55.9462 17.5794 53.5252 20.5093C52.0603 22.3598 49.6855 23.3776 47.3416 23.2696C45.1056 23.2079 42.9005 22.0977 41.5743 20.2626C40.0785 18.2425 39.7547 15.4668 40.6028 13.1075C41.4509 10.7019 43.6715 8.86682 46.185 8.43505ZM46.6476 11.365C45.8149 11.5808 45.0439 12.0589 44.4888 12.722C43.0084 14.4799 43.0701 17.3481 44.6584 19.029C45.5991 20.0313 47.064 20.5248 48.421 20.2472C49.6238 20.0159 50.7033 19.214 51.2892 18.1346C52.2916 16.2841 51.9986 13.7551 50.4257 12.321C49.4233 11.3958 47.9584 11.0257 46.6476 11.365Z" fill="#706D6E"/>
<path d="M60.0481 9.32943C61.8215 8.21915 64.1808 7.91074 66.093 8.86681C66.6944 9.12896 67.1878 9.57616 67.6659 10.0234C67.6813 9.607 67.6659 9.17522 67.6813 8.74345C68.7145 8.75887 69.7476 8.74345 70.7962 8.75887V22.3598C70.7808 24.4107 70.2565 26.585 68.7761 28.0808C67.157 29.7308 64.6743 30.2397 62.4383 29.9004C60.0481 29.5458 57.9663 27.8033 57.0411 25.5981C57.9663 25.1509 58.9378 24.7962 59.8939 24.3799C60.4336 25.6444 61.5285 26.7238 62.9009 26.9705C64.2733 27.2173 65.8617 26.878 66.756 25.7369C67.7121 24.5649 67.7121 22.9612 67.6659 21.5271C66.9565 22.221 66.1392 22.8378 65.1523 23.0691C63.0089 23.6705 60.6495 22.9304 58.9995 21.4808C57.3341 20.0313 56.3472 17.7953 56.4397 15.5748C56.486 13.0612 57.9046 10.6402 60.0481 9.32943ZM63.2402 11.3033C62.2995 11.4575 61.4205 11.9818 60.8191 12.7065C59.3696 14.4336 59.3696 17.1939 60.8346 18.8902C61.6673 19.8925 63.0089 20.4477 64.3042 20.3089C65.5224 20.1855 66.6481 19.4145 67.2495 18.3505C68.2673 16.5463 68.0976 14.0944 66.7252 12.5215C65.8771 11.55 64.5201 11.072 63.2402 11.3033Z" fill="#706D6E"/>
<path d="M80.4186 10.1159C82.2691 8.38879 85.1219 7.80281 87.4967 8.71262C89.7481 9.56075 91.1822 11.7042 91.907 13.9093C88.5607 15.2972 85.2299 16.6696 81.8836 18.0575C82.3462 18.9364 83.0556 19.7383 84.0116 20.0621C85.3532 20.5402 86.957 20.3706 88.0827 19.4762C88.5299 19.1369 88.8845 18.6897 89.2238 18.2579C90.0719 18.8285 90.92 19.3836 91.7682 19.9542C90.5654 21.7584 88.5453 23.0229 86.371 23.2234C83.9654 23.5164 81.4056 22.5911 79.8481 20.7098C77.2883 17.7491 77.535 12.7836 80.4186 10.1159ZM82.0686 12.9687C81.5443 13.7243 81.3285 14.6495 81.3439 15.5593C83.5799 14.6341 85.8158 13.7089 88.0518 12.7682C87.6817 11.9047 86.7873 11.3804 85.8775 11.2416C84.4126 10.9794 82.8859 11.7659 82.0686 12.9687Z" fill="#706D6E"/>
</svg>
