<svg width="368" height="400" viewBox="0 0 368 400" fill="none" xmlns="http://www.w3.org/2000/svg">
<path d="M253.222 385.27C208.228 385.27 173.122 358.135 165.56 324.642C157.847 290.489 135.812 273.963 97.2522 267.353C58.6915 260.742 -10.7175 208.96 1.40111 141.755C1.40111 141.755 4.2392 70.246 71.3628 22.7682C98.095 3.86057 130.811 -3.05176e-05 153.064 -3.05176e-05C168.413 -3.05176e-05 178.78 1.83502 178.78 1.83502C234.576 4.83542 261.295 38.873 272.279 76.1935H191.538C190.42 76.1935 189.459 76.9871 189.248 78.0849L184.376 103.419H162.675C160.584 103.419 158.789 104.911 158.406 106.967L145.58 175.762H268.041V207.399H302.522C324.495 224.996 351.853 245.43 357.26 283.879C367.176 354.389 302.174 384.136 255.901 385.238C255.006 385.259 254.11 385.27 253.222 385.27ZM277.674 103.419H273.189L275.701 90.3557C276.54 94.7263 277.192 99.0978 277.674 103.419Z" fill="#F8F8FD"/>
<path d="M112.502 170.67C112.502 170.67 109.71 135.075 120.179 111.344C124.367 105.761 127.159 107.855 127.159 107.855C127.159 107.855 128.555 122.512 125.065 136.471C121.575 150.429 119.482 177.649 119.482 177.649L112.502 170.67Z" fill="#5CA675"/>
<path d="M110.408 167.877C110.408 167.877 109.71 151.127 92.2611 136.471C74.8127 121.814 71.3229 121.814 71.3229 121.814C71.3229 121.814 85.2824 121.115 95.0536 127.397C104.825 133.678 108.314 151.127 109.012 153.919C109.71 156.71 113.898 167.877 113.898 167.877H110.408Z" fill="#518C6B"/>
<path d="M121.727 170.445C121.727 170.445 124.997 154.001 144.496 142.207C163.994 130.413 167.443 130.951 167.443 130.951C167.443 130.951 153.758 128.111 143.136 132.813C132.512 137.513 126.376 154.216 125.257 156.867C124.138 159.518 118.28 169.907 118.28 169.907L121.727 170.445Z" fill="#518C6B"/>
<path d="M113.898 167.877C113.898 167.877 95.751 107.855 79.6984 93.8958C80.3968 91.8017 99.2409 98.0841 104.825 113.438C110.408 128.792 111.804 151.825 113.898 158.106C115.992 164.389 118.783 169.972 118.783 169.972" fill="#78CD6B"/>
<path d="M112.502 170.67C112.502 170.67 119.482 137.866 137.627 126.699C139.024 130.887 118.783 165.086 120.877 180.441C122.971 195.795 112.502 170.67 112.502 170.67Z" fill="#78CD6B"/>
<path d="M102.537 207.641H129.378C131.03 196.448 132.417 186.382 132.673 182.534C133.203 174.604 130.53 167.883 129.202 165.086H102.713C101.384 167.883 98.7115 174.604 99.2409 182.534C99.498 186.382 100.884 196.448 102.537 207.641Z" fill="#ADA0D7"/>
<path d="M297.72 207.399H346.946V140.799H297.72V207.399Z" fill="#45B2B1"/>
<path d="M292.653 207.399H341.878V140.799H292.653V207.399Z" fill="#58C8D6"/>
<path d="M280.347 207.399H329.572V134.043H280.347V207.399Z" fill="#E24034"/>
<path d="M268.041 207.399H324.505V134.043H268.041V207.399Z" fill="#F14946"/>
<path d="M314.853 207.399H324.505V134.043H314.853V207.399Z" fill="#EC4144"/>
<path d="M42.6657 152.382C42.6657 152.382 34.944 156.242 31.566 167.343C28.1875 178.442 46.5262 208.363 46.5262 206.915C46.5262 205.468 64.8655 197.265 64.8655 197.265L55.6964 163.481L42.6657 152.382Z" fill="#2A347B"/>
<path d="M235.536 210.962L225.341 184.016H199.85L210.046 210.962" fill="#4B4EA5"/>
<path d="M143.045 189.356H287.973L290.507 175.762H145.579" fill="#E7E8F6"/>
<path d="M158.406 106.968L145.58 175.762H290.507L303.037 108.559C303.535 105.888 301.484 103.419 298.767 103.419H162.675C160.584 103.419 158.789 104.911 158.406 106.968Z" fill="#31419F"/>
<path d="M229.795 201.245L268.162 172.651L230.519 170.479L195.048 197.988L229.795 201.245Z" fill="white"/>
<path d="M219.057 191.955L228.709 186.647C228.709 186.647 238.029 182.786 238.3 182.786C238.573 182.786 239.386 183.69 238.391 185.591C237.396 187.492 234.771 187.943 234.771 187.943L233.052 192.74L241.981 191.473L244.032 190.991C244.032 190.991 242.584 194.61 241.981 195.454C241.377 196.298 237.999 198.47 237.999 198.47C237.999 198.47 231.604 203.78 229.312 204.383C227.02 204.986 219.057 205.348 219.057 205.348L213.99 205.227L209.285 206.192C209.285 206.192 206.872 201.728 207.232 195.454L219.057 191.955Z" fill="#F5775B"/>
<path d="M276.245 214.155L304.236 396.579H310.993L292.653 213.19L276.245 214.155Z" fill="#E7E8F6"/>
<path d="M333.192 214.155L361.183 396.579H367.94L349.6 213.19L333.192 214.155Z" fill="#E7E8F6"/>
<path d="M169.108 214.155L141.116 396.579H134.36L152.699 213.19L169.108 214.155Z" fill="#C7D5EE"/>
<path d="M112.16 214.155L84.1693 396.579H77.4128L95.752 213.19L112.16 214.155Z" fill="#C7D5EE"/>
<path d="M353.462 220.911H101.543V212.225H353.462V220.911Z" fill="#ADA0D7"/>
<path d="M358.288 216.085H109.265C106.6 216.085 104.439 213.925 104.439 211.26C104.439 208.594 106.6 206.434 109.265 206.434H358.288C360.953 206.434 363.113 208.594 363.113 211.26C363.113 213.925 360.953 216.085 358.288 216.085Z" fill="#FBC23D"/>
<path d="M117.607 378.241C117.607 378.241 119.189 374.365 125.807 375.055C132.425 375.744 133.246 376.971 134.164 380.218C135.083 383.465 137.529 386.891 139.082 387.575C140.634 388.258 146.378 391.776 150.962 392.312C155.547 392.848 156.188 395.602 155.239 396.915C154.29 398.228 137.16 400.077 133.346 399.757C133.346 399.757 120.448 400.134 117.368 399.272C114.287 398.409 117.415 379.516 117.607 378.241Z" fill="#232559"/>
<path d="M119.36 350.45L117.374 380.701C117.374 380.701 122.09 382.22 125.678 384.85C130.981 388.737 135.325 384.03 135.325 384.03L136.521 364.997L119.36 350.45Z" fill="#F5775B"/>
<path d="M157.766 297.162L138.22 381.135C138.22 381.135 128.086 382.584 115.78 376.791C115.78 376.791 126.639 297.886 127.362 292.82C128.086 287.752 156.318 292.82 157.766 297.162Z" fill="#2A347B"/>
<path d="M78.5361 79.9107C78.5361 79.9107 86.5604 81.4057 91.8341 93.223C97.1079 105.041 95.8391 130.982 93.0599 134.208C90.2817 137.435 81.1536 136.879 68.3287 133.571C54.7768 130.073 49.3802 116.585 46.4054 107.648C40.7102 90.5359 54.6631 71.6099 78.5361 79.9107Z" fill="#F5775B"/>
<path d="M56.2595 149.074L60.8748 126.968C60.8748 126.968 72.7545 122.629 80.8627 130.203L83.6214 133.569L84.5605 147.702C84.5605 147.702 72.1083 151.064 56.2595 149.074Z" fill="#F5775B"/>
<path d="M56.0015 285.032C56.0015 285.032 81.8642 292.598 112.538 291.555C143.213 290.509 147.272 281.812 148.229 273.52C149.186 265.228 125.324 260.184 114.944 257.458C104.565 254.733 69.0772 244.528 59.4811 254.878C49.8839 265.229 47.6516 277.957 56.0015 285.032Z" fill="#232559"/>
<path d="M189.272 378.241C189.272 378.241 190.856 374.365 197.474 375.055C204.093 375.744 204.911 376.971 205.831 380.218C206.748 383.465 209.195 386.891 210.748 387.575C212.3 388.258 218.044 391.776 222.629 392.312C227.213 392.848 227.854 395.602 226.906 396.915C225.957 398.228 208.827 400.077 205.012 399.757C205.012 399.757 192.115 400.134 189.034 399.272C185.953 398.409 189.082 379.516 189.272 378.241Z" fill="#232559"/>
<path d="M181.654 352.661L188.894 382.101C188.894 382.101 194.685 380.652 198.063 383.549C201.442 386.444 207.716 384.514 207.716 384.514L202.407 361.35L181.654 352.661Z" fill="#F5775B"/>
<path d="M121.812 254.211C123.26 254.211 172.485 270.619 182.138 277.859C191.789 285.581 207.232 371.605 208.198 373.534C209.164 375.464 194.203 380.774 184.551 379.326C184.068 377.396 161.386 304.884 161.386 300.057C161.386 300.057 122.777 298.128 106.369 295.232C89.9612 292.336 78.8608 291.854 72.1043 273.998C65.3478 256.142 104.921 254.694 104.921 254.694L121.812 254.211Z" fill="#2A347B"/>
<path d="M206.026 190.749C206.026 190.749 215.438 190.507 216.161 191.473C216.885 192.438 220.263 201.124 217.127 204.744C214.471 206.675 214.471 206.675 214.471 206.675H206.268L206.026 190.749Z" fill="#E7E8F6"/>
<path d="M54.6098 145.867L57.1432 139.351C57.1432 139.351 72.3459 134.647 85.3756 140.438C88.634 143.695 90.4435 148.762 90.4435 148.762L54.6098 145.867Z" fill="#E7E8F6"/>
<path d="M51.3524 146.591C51.3524 146.591 53.2827 143.213 56.6609 142.729C60.0392 142.247 75.4825 140.317 85.6173 143.213C89.4778 144.66 91.4081 146.591 91.4081 146.591C91.4081 146.591 105.887 151.417 110.712 154.312C115.538 157.208 116.986 179.408 117.952 186.647C118.916 193.886 116.022 201.608 116.022 201.608C116.022 201.608 127.603 248.902 127.603 255.659C127.603 262.415 123.743 270.137 110.23 274.964C96.7167 279.789 60.0392 277.859 47.4919 270.137C43.6303 262.415 37.8396 170.721 36.8745 162.034C35.9088 153.348 51.3524 146.591 51.3524 146.591Z" fill="#2A347B"/>
<path d="M102.749 152.382C102.749 152.382 106.369 150.21 115.056 156.002C123.743 161.793 147.631 183.509 150.527 184.957C153.423 186.406 209.164 189.301 209.164 189.301C209.164 189.301 217.126 199.436 208.44 207.399C208.44 207.399 154.629 209.571 144.495 208.847C134.36 208.123 100.578 188.577 100.578 188.577C100.578 188.577 86.8235 168.308 102.749 152.382Z" fill="#2A347B"/>
<path d="M90.9514 184.699C90.9524 184.699 102.236 190.623 114.18 196.642C120.152 199.652 126.289 202.685 131.267 205.015C133.757 206.18 135.955 207.169 137.703 207.893C139.458 208.617 140.729 209.076 141.482 209.188C143.29 209.445 146.672 209.526 150.414 209.526C157.892 209.526 166.752 209.192 166.755 209.192L166.723 208.346C166.722 208.346 166.17 208.366 165.224 208.398C162.385 208.492 156.005 208.68 150.414 208.68C146.692 208.681 143.304 208.595 141.602 208.35C141.037 208.273 139.747 207.827 138.027 207.112C131.973 204.604 120.29 198.809 110.136 193.647C105.058 191.064 100.36 188.641 96.9317 186.862C95.2175 185.972 93.8207 185.244 92.852 184.738C91.8833 184.233 91.3457 183.951 91.3446 183.949L90.9514 184.699Z" fill="#1D2243"/>
<path d="M151.656 190.417C151.656 190.417 151.667 190.476 151.684 190.598C151.738 190.966 151.848 191.867 151.848 193.062C151.85 195.857 151.241 200.214 148.023 203.194L148.599 203.813C152.083 200.569 152.692 195.962 152.694 193.062C152.694 191.4 152.491 190.284 152.488 190.266L151.656 190.417Z" fill="#1D2243"/>
<path d="M155.099 188.311C155.099 188.311 155.139 188.375 155.216 188.505C155.757 189.41 157.93 193.378 157.922 197.183C157.922 198.269 157.749 199.34 157.325 200.329L158.102 200.663C158.58 199.545 158.768 198.359 158.768 197.183C158.756 192.485 155.826 187.892 155.814 187.859L155.099 188.311Z" fill="#1D2243"/>
<path d="M91.1788 174.806L91.1604 174.736C91.0713 174.393 90.6975 172.805 90.6975 170.55C90.7067 166.031 92.167 158.884 100.406 153.463L99.9414 152.756C91.4276 158.343 89.8424 165.86 89.8517 170.55C89.8517 173.234 90.3575 175.011 90.3647 175.038L91.1788 174.806Z" fill="#1D2243"/>
<path d="M41.8372 162.464C41.8372 162.473 39.2033 185.777 39.2021 196.734H40.0481C40.0477 191.312 40.7049 182.757 41.3631 175.572C41.6918 171.978 42.0205 168.724 42.2673 166.369C42.5141 164.015 42.6779 162.563 42.6779 162.559L41.8372 162.464Z" fill="#1D2243"/>
<path d="M55.8336 147.514C55.8346 147.514 56.3097 147.473 57.174 147.409C59.7689 147.222 65.8403 146.847 72.8457 146.847C77.5152 146.847 82.6005 147.014 87.3428 147.513L87.4318 146.672C82.6466 146.168 77.5357 146.001 72.8457 146C63.4656 146.001 55.767 146.67 55.7598 146.671L55.8336 147.514Z" fill="#1D2243"/>
<path d="M169.123 299.054C169.166 299.041 171.293 298.356 173.795 296.047C176.298 293.739 179.168 289.801 180.69 283.328L179.866 283.134C178.378 289.45 175.607 293.221 173.221 295.426C172.027 296.528 170.929 297.236 170.133 297.667C169.736 297.883 169.414 298.031 169.194 298.122C169.084 298.168 168.999 298.201 168.944 298.22L168.883 298.243L168.867 298.248L169.123 299.054Z" fill="#1D2243"/>
<path d="M174.761 300.183C174.798 300.171 176.071 299.775 177.63 298.509C179.188 297.244 181.03 295.103 182.183 291.639L181.381 291.372C180.277 294.677 178.546 296.673 177.096 297.853C176.371 298.441 175.716 298.824 175.247 299.06C175.011 299.177 174.823 299.257 174.696 299.307L174.553 299.361L174.512 299.374L174.761 300.183Z" fill="#1D2243"/>
<path d="M144.135 314.363L131.725 376.416L132.554 376.582L144.966 314.529" fill="#1D2243"/>
<path d="M90.081 95.5557C90.081 95.5557 91.529 102.071 85.7371 106.413L86.0996 113.653C86.0996 113.653 88.2716 120.168 86.8236 120.892C85.3757 121.616 85.0142 120.53 85.0142 120.53C85.0142 120.53 80.3088 112.929 78.8608 112.568C77.4128 112.205 82.1182 122.703 82.1182 122.703C82.1182 122.703 77.4128 129.94 68.7261 131.027L70.5355 128.493C70.5355 128.493 66.5541 131.027 60.4007 130.664C54.2484 130.303 49.543 120.892 49.543 120.892C49.543 120.892 50.6285 123.426 49.543 124.512C48.4565 125.597 42.3032 116.187 41.9417 104.243L40.1321 107.861C40.1321 107.861 40.4937 99.5371 43.7522 90.1263C47.0086 80.7156 61.4872 73.8382 69.45 73.8382C77.4128 73.8382 85.3756 74.5622 87.5476 73.8382C89.7196 73.1142 88.6341 79.2676 88.6341 79.2676C88.6341 79.2676 89.7196 76.7342 90.081 74.5622C91.529 73.4767 93.701 82.1635 92.977 85.421C92.253 88.6784 92.253 88.6784 92.253 88.6784C92.253 88.6784 94.7864 85.4209 95.1489 83.6115C96.5959 83.249 96.2344 91.2118 90.081 95.5557Z" fill="#232559"/>
<path d="M84.8288 113.589C84.8288 113.589 83.3665 108.742 79.3533 111.29C75.3392 113.839 81.0409 125.247 84.3977 124.264C87.7544 123.28 85.7125 115.431 84.8288 113.589Z" fill="#F14946"/>
<path d="M231.854 198.149L242.436 196.032L244.627 191.264L243.436 190.716L241.524 194.877L231.596 196.862L231.854 198.149Z" fill="#E74D4D"/>
<path d="M241.197 195.192C241.196 195.193 240.875 195.463 240.378 195.875C239.632 196.493 238.498 197.429 237.485 198.241C236.978 198.647 236.502 199.023 236.124 199.31C235.936 199.453 235.771 199.574 235.643 199.664C235.519 199.752 235.417 199.814 235.412 199.814C235.308 199.869 234.971 199.994 234.579 200.117C233.985 200.307 233.226 200.522 232.62 200.689C232.014 200.855 231.561 200.973 231.56 200.973L231.89 202.242C231.892 202.242 232.71 202.03 233.623 201.771C234.08 201.64 234.56 201.5 234.978 201.366C235.401 201.23 235.743 201.113 235.999 200.987C236.171 200.898 236.327 200.787 236.553 200.625C237.32 200.067 238.68 198.969 239.863 197.999C241.044 197.031 242.038 196.199 242.039 196.198L241.197 195.192Z" fill="#E74D4D"/>
<path d="M82.5739 125.659C82.5606 125.704 82.4582 126.079 82.4582 126.676C82.4551 127.567 82.6988 128.971 83.817 130.41C84.9332 131.852 86.8912 133.309 90.2356 134.424L90.6503 133.179C87.48 132.122 85.7739 130.796 84.8534 129.608C83.9358 128.419 83.772 127.344 83.7689 126.676C83.7689 126.454 83.7884 126.278 83.8068 126.164L83.8293 126.04L83.8355 126.015V126.014L83.4709 125.915L83.8345 126.018L83.8355 126.014L83.4709 125.915L83.8345 126.018L82.5739 125.659Z" fill="#E74D4D"/>
<path d="M281.071 163.965H203.854L213.507 113.774H290.723L281.071 163.965Z" fill="#405AB1"/>
<path d="M179.043 131.149C178.767 132.586 179.869 133.922 181.334 133.922H265.397C266.515 133.922 267.476 133.128 267.687 132.029L268.924 125.596H180.111L179.043 131.149Z" fill="#5ECBF5"/>
<path d="M275.601 76.1934H191.538C190.42 76.1934 189.459 76.9871 189.249 78.0848L180.111 125.596H268.924L277.891 78.9665C278.168 77.5278 277.066 76.1934 275.601 76.1934Z" fill="#D1E8F8"/>
<path d="M218.129 133.958C219.235 130.905 219.919 128.723 219.919 128.723C219.919 128.723 222.453 115.47 211.16 118.87C211.16 118.87 207.243 121.808 205.398 128.032C204.825 129.963 204.142 132.028 203.472 133.958H218.129Z" fill="#4377BD"/>
<path d="M241.52 133.958C241.313 127.423 240.907 122.183 240.201 120.771C238.127 116.968 229.656 113.511 229.656 113.511L218.075 115.24C218.075 115.24 213.234 116.623 211.679 120.08C211.156 121.241 209.892 126.894 208.541 133.958H241.52Z" fill="#E1E5F5"/>
<path d="M220.053 105.669C220.053 105.669 219.353 110.85 217.812 114.629C217.812 114.629 217.392 117.57 223.553 116.31C229.713 115.049 228.873 111.97 228.873 111.97V99.7881L220.053 105.669Z" fill="#F5775B"/>
<path d="M211.403 92.8595C211.403 92.8595 211.473 104.443 214.797 110.023C217.066 112.369 224.802 108.684 228.058 103.704C231.314 98.7241 231.25 91.2324 228.673 87.0615C226.098 82.8907 217.613 84.1451 215.127 85.5849C212.64 87.0257 211.263 91.0081 211.403 92.8595Z" fill="#F5775B"/>
<path d="M227.034 99.4031C227.034 99.4031 229.219 96.0371 230.68 98.0411C232.141 100.046 227.081 104.144 226.694 102.586C226.307 101.025 227.034 99.4031 227.034 99.4031Z" fill="#F7978A"/>
<path d="M211.403 92.8596C211.403 92.8596 207.34 89.2868 212.241 84.6664C214.016 83.3351 215.229 83.4662 216.629 83.5983C217.436 83.6751 218.306 83.7509 219.381 83.5461C222.321 82.9859 227.642 83.5461 229.602 86.6274C231.562 89.7066 230.862 96.8471 230.302 97.5476C229.742 98.248 228.062 98.6678 228.062 99.9284C228.062 101.188 227.781 102.168 227.362 102.168C226.942 102.168 226.942 100.068 226.942 98.5286C226.942 96.9874 226.662 94.0475 225.962 91.9472C225.261 89.8469 222.042 89.9872 220.781 90.2668C219.522 90.5474 218.687 93.773 211.403 92.8596Z" fill="#6C2931"/>
<path d="M226.661 96.3391C226.661 96.3391 226.662 96.3391 226.665 96.3371L226.661 96.3391ZM226.665 96.3371L226.811 96.2644C226.811 96.2664 226.811 96.2685 226.811 96.2695C226.732 96.3043 226.68 96.3299 226.665 96.3371Z" fill="#9E6771"/>
<path d="M226.811 96.2695C226.811 96.2685 226.811 96.2665 226.811 96.2644L226.891 96.2245L226.892 96.2357C226.863 96.248 226.835 96.2593 226.811 96.2695Z" fill="#58405B"/>
<path d="M216.807 108.613C214.157 108.036 214.503 105.962 217.21 105.099C217.21 105.099 220.092 103.772 221.071 105.79C221.474 107.115 219.458 109.19 216.807 108.613ZM226.892 96.2356C226.918 96.464 227.65 103.171 224.989 105.04C222.224 106.884 222.107 104.522 219.919 104.176C217.729 103.831 215.943 103.945 214.964 105.386C214.098 106.827 214.271 107.461 213.465 107.057C213.292 107.518 214.503 110.342 216.346 111.091C218.189 111.84 222.569 109.536 224.528 107.806C226.488 106.077 227.697 104.983 228.043 103.485C228.389 101.987 228.216 99.1059 228.62 97.0886C228.849 95.5659 227.457 96.0011 226.892 96.2356Z" fill="#6C2931"/>
<path d="M228.879 111.091C228.879 111.091 225.508 115.326 219.976 115.845C218.853 115.413 218.248 113.338 218.248 113.338L217.383 114.634C217.383 114.634 216.951 117.227 217.383 118.265C217.902 118.352 219.803 117.054 219.803 117.054C219.803 117.054 221.1 118.87 222.051 119.215C223.001 119.561 229.052 115.499 229.656 113.511C229.656 113.511 229.613 112.085 228.879 111.091Z" fill="white"/>
<path d="M242.403 133.958C242.102 127.518 241.716 122.594 241.353 121.577C239.971 118.352 234.785 114.202 229.657 113.511C229.657 113.511 227.731 122.403 225.835 133.958H242.403Z" fill="#4377BD"/>
<path d="M212.57 133.958C215.286 122.429 217.384 115.586 217.384 115.586C215.828 115.758 213.061 116.968 211.161 118.87C210.127 120.934 208.525 126.863 206.869 133.958H212.57Z" fill="#4377BD"/>
<path d="M241.366 133.958C241.555 127.791 241.209 122.089 240.201 120.771C236.917 118.005 233.46 118.178 231.731 121.289C230.786 122.99 229.531 128.925 228.588 133.958H241.366Z" fill="#4377BD"/>
<path d="M219.625 117.011C218.644 121.009 217.83 125.05 217.096 129.097L217.457 129.162C218.192 125.12 219.004 121.087 219.983 117.098L219.625 117.011Z" fill="#91B9E6"/>
<path d="M290.47 73.8486C288.077 83.4468 278.356 91.2273 268.758 91.2273C259.16 91.2273 253.319 83.4468 255.712 73.8486C258.105 64.2494 267.826 56.4689 277.424 56.4689C287.022 56.4689 292.863 64.2494 290.47 73.8486Z" fill="#6C7AC5"/>
<path d="M294.001 92.5175C293.347 95.1451 290.686 97.274 288.06 97.274C285.432 97.274 283.834 95.1451 284.489 92.5175C285.144 89.8919 287.805 87.7619 290.431 87.7619C293.059 87.7619 294.656 89.8919 294.001 92.5175Z" fill="#6C7AC5"/>
<path d="M268.61 82.6808C268.062 82.6808 267.569 82.4719 267.254 82.0541L262.764 76.0717C262.137 75.2372 262.474 73.8844 263.518 73.0498C264.559 72.2153 265.912 72.2153 266.539 73.0498L269.895 77.5217L281.89 67.9215C282.933 67.0869 284.285 67.0869 284.912 67.9215C285.538 68.7561 285.202 70.1088 284.158 70.9434L270.276 82.0541C269.756 82.4719 269.157 82.6808 268.61 82.6808Z" fill="white"/>
<path d="M145.387 44.8778H139.704C138.277 44.8778 137.408 43.7217 137.765 42.2942L139.181 36.6098C139.537 35.1834 140.982 34.0262 142.41 34.0262H148.094C149.52 34.0262 150.389 35.1834 150.033 36.6098L148.616 42.2942C148.26 43.7217 146.815 44.8778 145.387 44.8778Z" fill="#C7DBF3"/>
<path d="M141.233 61.5438V61.1598H135.549C135.03 61.1588 134.632 60.9858 134.355 60.7134C134.078 60.44 133.914 60.058 133.913 59.588C133.913 59.42 133.935 59.2408 133.982 59.0534L135.399 53.3681C135.552 52.7506 135.953 52.1679 136.478 51.748C137.004 51.3272 137.646 51.0742 138.254 51.0763H143.938C144.457 51.0773 144.855 51.2493 145.132 51.5217C145.409 51.7962 145.573 52.1781 145.574 52.6482C145.574 52.8161 145.552 52.9953 145.505 53.1827L144.088 58.8671C143.935 59.4856 143.534 60.0672 143.009 60.4871C142.483 60.9079 141.841 61.1609 141.233 61.1598V61.5438V61.9279C142.051 61.9268 142.845 61.6012 143.489 61.0871C144.131 60.572 144.631 59.8624 144.833 59.0534L146.251 53.3681C146.312 53.1233 146.342 52.8816 146.342 52.6482C146.343 51.9948 146.102 51.3988 145.672 50.9749C145.242 50.551 144.631 50.3062 143.938 50.3083H138.254C137.436 50.3093 136.642 50.6349 135.998 51.149C135.356 51.6641 134.856 52.3737 134.654 53.1827L133.236 58.8671C133.175 59.1128 133.145 59.3535 133.145 59.588C133.144 60.2413 133.385 60.8373 133.815 61.2602C134.245 61.6852 134.856 61.9289 135.549 61.9279H141.233V61.5438Z" fill="#ADA0D7"/>
<path d="M159.319 61.5439H153.635C152.208 61.5439 151.339 60.3878 151.695 58.9603L153.113 53.276C153.469 51.8485 154.914 50.6924 156.34 50.6924H162.026C163.452 50.6924 164.321 51.8485 163.965 53.276L162.547 58.9603C162.192 60.3878 160.747 61.5439 159.319 61.5439Z" fill="#58C8D6"/>
<path d="M177.406 61.5439H171.721C170.295 61.5439 169.426 60.3878 169.782 58.9603L171.2 53.276C171.555 51.8485 173 50.6924 174.427 50.6924H180.112C181.539 50.6924 182.407 51.8485 182.052 53.276L180.633 58.9603C180.278 60.3878 178.833 61.5439 177.406 61.5439Z" fill="white"/>
<path d="M136.981 78.5969H131.297C129.869 78.5969 129.002 77.4398 129.357 76.0133L130.775 70.329C131.13 68.9015 132.576 67.7453 134.002 67.7453H139.687C141.114 67.7453 141.983 68.9015 141.626 70.329L140.209 76.0133C139.854 77.4398 138.409 78.5969 136.981 78.5969Z" fill="#58C8D6"/>
<path d="M132.44 96.8123H126.755C125.328 96.8123 124.46 95.6561 124.816 94.2286L126.233 88.5443C126.588 87.1178 128.033 85.9607 129.461 85.9607H135.145C136.572 85.9607 137.44 87.1178 137.085 88.5443L135.667 94.2286C135.312 95.6561 133.866 96.8123 132.44 96.8123Z" fill="white"/>
<path d="M155.068 78.5969H149.383C147.956 78.5969 147.088 77.4398 147.444 76.0133L148.861 70.329C149.216 68.9015 150.662 67.7453 152.089 67.7453H157.773C159.201 67.7453 160.069 68.9015 159.713 70.329L158.295 76.0133C157.94 77.4398 156.495 78.5969 155.068 78.5969Z" fill="#F2F7FC"/>
<path d="M147.144 110.377V109.993H141.459C140.941 109.992 140.543 109.819 140.265 109.547C139.989 109.274 139.825 108.892 139.824 108.421C139.824 108.253 139.845 108.074 139.893 107.887L141.31 102.202C141.462 101.584 141.864 101.003 142.389 100.583C142.914 100.161 143.557 99.9078 144.166 99.9099H149.849C150.367 99.9109 150.766 100.083 151.043 100.355C151.32 100.63 151.483 101.012 151.485 101.482C151.485 101.65 151.463 101.829 151.417 102.016L149.999 107.701C149.846 108.319 149.446 108.901 148.919 109.321C148.395 109.742 147.753 109.994 147.144 109.993V110.377V110.761C147.962 110.76 148.757 110.435 149.4 109.921C150.042 109.406 150.541 108.695 150.744 107.887L152.161 102.202C152.223 101.957 152.253 101.715 152.253 101.482C152.255 100.828 152.014 100.232 151.583 99.8085C151.154 99.3846 150.542 99.1398 149.849 99.1419H144.166C143.347 99.1429 142.553 99.4685 141.91 99.9826C141.267 100.498 140.767 101.207 140.564 102.016L139.147 107.701C139.086 107.945 139.056 108.187 139.056 108.421C139.055 109.074 139.296 109.671 139.726 110.094C140.156 110.519 140.766 110.762 141.459 110.761H147.144V110.377Z" fill="#ADA0D7"/>
<path d="M318.148 88.2954H316.063C315.539 88.2954 315.22 87.8715 315.351 87.3472L315.871 85.2612C316.002 84.7369 316.532 84.3119 317.056 84.3119H319.143C319.666 84.3119 319.985 84.7369 319.855 85.2612L319.334 87.3472C319.204 87.8715 318.673 88.2954 318.148 88.2954Z" fill="#D1E8F8"/>
<path d="M316.624 94.4141H314.537C314.013 94.4141 313.695 93.9891 313.825 93.4658L314.346 91.3788C314.476 90.8545 315.007 90.4296 315.531 90.4296H317.617C318.141 90.4296 318.46 90.8545 318.329 91.3788L317.808 93.4658C317.678 93.9891 317.148 94.4141 316.624 94.4141Z" fill="#D1E8F8"/>
<path d="M323.265 94.4141H321.177C320.653 94.4141 320.334 93.9891 320.465 93.4658L320.985 91.3788C321.116 90.8545 321.647 90.4296 322.17 90.4296H324.257C324.781 90.4296 325.1 90.8545 324.97 91.3788L324.449 93.4658C324.318 93.9891 323.787 94.4141 323.265 94.4141Z" fill="#D1E8F8"/>
<path d="M329.903 94.4141H327.816C327.292 94.4141 326.975 93.9891 327.105 93.4658L327.625 91.3788C327.755 90.8545 328.286 90.4296 328.811 90.4296H330.897C331.42 90.4296 331.739 90.8545 331.608 91.3788L331.088 93.4658C330.957 93.9891 330.428 94.4141 329.903 94.4141Z" fill="#D1E8F8"/>
<path d="M315.063 100.674H312.977C312.453 100.674 312.133 100.249 312.264 99.7256L312.785 97.6386C312.915 97.1154 313.446 96.6904 313.969 96.6904H316.056C316.58 96.6904 316.899 97.1154 316.768 97.6386L316.248 99.7256C316.118 100.249 315.587 100.674 315.063 100.674Z" fill="#D1E8F8"/>
<path d="M313.396 107.362H311.309C310.785 107.362 310.467 106.937 310.596 106.413L311.118 104.326C311.248 103.802 311.779 103.377 312.302 103.377H314.389C314.913 103.377 315.232 103.802 315.101 104.326L314.581 106.413C314.45 106.937 313.92 107.362 313.396 107.362Z" fill="#D1E8F8"/>
<path d="M321.703 100.674H319.616C319.092 100.674 318.773 100.249 318.904 99.7256L319.424 97.6386C319.555 97.1154 320.085 96.6904 320.609 96.6904H322.696C323.22 96.6904 323.539 97.1154 323.408 97.6386L322.888 99.7256C322.757 100.249 322.227 100.674 321.703 100.674Z" fill="#D1E8F8"/>
<path d="M318.794 112.341H316.707C316.183 112.341 315.865 111.916 315.995 111.392L316.516 109.305C316.646 108.782 317.177 108.357 317.7 108.357H319.787C320.311 108.357 320.63 108.782 320.499 109.305L319.979 111.392C319.848 111.916 319.318 112.341 318.794 112.341Z" fill="#D1E8F8"/>
<path d="M324.505 143.647V140.741C324.873 140.992 325.075 141.457 324.952 141.93L324.505 143.647Z" fill="#C6C9EA"/>
<path d="M314.853 167.362H292.074L297.072 140.551H314.853V167.362Z" fill="#CBCCEB"/>
<path d="M317.481 167.362H314.853V140.551H323.885C324.117 140.551 324.33 140.622 324.505 140.741V143.647L318.547 166.538C318.421 167.023 317.982 167.362 317.481 167.362Z" fill="#C7CAEB"/>
<path d="M292.074 167.362H248.873C248.152 167.362 247.625 166.68 247.807 165.983L248.333 163.965H281.071L285.573 140.551H297.072L292.074 167.362Z" fill="#B6C8EB"/>
<path d="M281.071 163.965H248.333L254.211 141.375C254.337 140.889 254.777 140.551 255.277 140.551H285.573L281.071 163.965Z" fill="#B7CDED"/>
<path d="M258.283 146.366H282.156C282.46 146.366 282.707 146.119 282.707 145.815C282.707 145.511 282.46 145.264 282.156 145.264H258.283C257.978 145.264 257.732 145.511 257.732 145.815C257.732 146.119 257.978 146.366 258.283 146.366Z" fill="#B2BFE7"/>
<path d="M256.447 157.384H280.319C280.623 157.384 280.87 157.137 280.87 156.833C280.87 156.529 280.623 156.282 280.319 156.282H256.447C256.142 156.282 255.896 156.529 255.896 156.833C255.896 157.137 256.142 157.384 256.447 157.384Z" fill="#B2BFE7"/>
<path d="M266.484 153.222H290.359C290.663 153.222 290.909 152.975 290.909 152.671C290.909 152.367 290.663 152.12 290.359 152.12H266.484C266.18 152.12 265.934 152.367 265.934 152.671C265.934 152.975 266.18 153.222 266.484 153.222Z" fill="#B2BFE7"/>
<path d="M257.671 150.039H264.833C265.137 150.039 265.384 149.792 265.384 149.488C265.384 149.184 265.137 148.937 264.833 148.937H257.671C257.366 148.937 257.12 149.184 257.12 149.488C257.12 149.792 257.366 150.039 257.671 150.039Z" fill="#B2BFE7"/>
<path d="M256.692 153.222H263.853C264.157 153.222 264.404 152.975 264.404 152.671C264.404 152.367 264.157 152.12 263.853 152.12H256.692C256.388 152.12 256.141 152.367 256.141 152.671C256.141 152.975 256.388 153.222 256.692 153.222Z" fill="#B2BFE7"/>
<path d="M285.951 146.366H294.46C294.764 146.366 295.011 146.119 295.011 145.815C295.011 145.511 294.764 145.264 294.46 145.264H285.951C285.647 145.264 285.4 145.511 285.4 145.815C285.4 146.119 285.647 146.366 285.951 146.366Z" fill="#B2BFE7"/>
<path d="M290.12 162.003V161.819H277.505L277.465 161.767L277.32 161.88L277.498 161.926L278.05 159.802L278.096 159.767L277.983 159.622V159.806H290.598L290.638 159.857L290.783 159.745L290.605 159.699L290.053 161.822L290.008 161.857L290.12 162.003V161.819V162.003L290.233 162.148L290.327 162.075L290.377 162.036L290.984 159.704L290.834 159.509L290.778 159.438H277.921L277.775 159.55L277.726 159.589L277.12 161.922L277.269 162.115L277.325 162.186H290.182L290.233 162.148L290.12 162.003Z" fill="#8CADE0"/>
<path d="M274.327 162.003V161.819H261.711L261.671 161.767L261.527 161.88L261.704 161.927L262.257 159.802L262.303 159.767L262.191 159.622V159.806H274.806L274.846 159.857L274.991 159.745L274.813 159.699L274.26 161.822L274.215 161.857L274.327 162.003V161.819V162.003L274.439 162.148L274.534 162.075L274.583 162.036L275.192 159.704L275.041 159.509L274.986 159.438H262.128L261.983 159.55L261.934 159.589L261.326 161.921L261.477 162.115L261.531 162.186H274.389L274.439 162.148L274.327 162.003Z" fill="#8CADE0"/>
<path d="M312.452 158.835C311.801 157.968 309.158 157.336 308.427 156.469C308.055 156.026 308.055 155.202 308.144 154.503C308.404 154.337 308.62 154.171 308.749 154.016C308.968 153.696 309.216 153.247 309.463 152.757C309.537 152.829 309.638 152.887 309.767 152.883C310.114 152.872 311.435 151.075 311.094 150.659C310.899 150.42 310.585 150.627 310.351 150.847C310.701 150.047 310.947 149.434 310.947 149.434H310.933C310.967 149.332 310.997 149.231 311.022 149.128C311.547 147.026 310.268 145.322 308.166 145.322C306.065 145.322 303.937 147.026 303.413 149.128C303.386 149.231 303.367 149.332 303.349 149.434H303.337C303.337 149.434 303.277 150.047 303.226 150.847C303.104 150.627 302.892 150.42 302.578 150.659C302.029 151.075 302.454 152.872 302.795 152.883C302.923 152.887 303.051 152.829 303.163 152.757C303.166 153.247 303.19 153.696 303.25 154.016C303.312 154.205 303.497 154.412 303.735 154.613C303.474 155.287 303.077 156.049 302.514 156.469C301.35 157.336 298.394 157.968 297.311 158.835C296.336 159.615 295.465 161.894 295.3 162.344H312.711C312.771 161.894 313.037 159.615 312.452 158.835Z" fill="#4377BD"/>
<path d="M224.454 158.586H168.159C163.217 158.586 160.209 154.579 161.441 149.637C162.673 144.696 167.678 140.689 172.621 140.689H228.917C233.86 140.689 236.867 144.696 235.635 149.637C234.403 154.579 229.397 158.586 224.454 158.586Z" fill="white"/>
<path d="M174.13 151.973L171.716 153.096C171.489 153.202 171.296 153.031 171.391 152.807L172.391 150.431L172.373 150.189L171.066 148.505C170.943 148.347 171.101 148.071 171.333 148.039L173.806 147.692L174.05 147.541L175.657 145.38C175.807 145.176 176.097 145.176 176.147 145.38L176.676 147.541L176.844 147.692L179.143 148.039C179.359 148.071 179.381 148.347 179.179 148.505L177.033 150.189L176.894 150.431L176.708 152.807C176.691 153.031 176.413 153.202 176.239 153.096L174.385 151.973H174.13Z" fill="#F8990F"/>
<path d="M186.016 151.973L183.602 153.096C183.375 153.202 183.182 153.031 183.276 152.807L184.277 150.431L184.258 150.189L182.952 148.505C182.828 148.347 182.987 148.071 183.22 148.039L185.692 147.692L185.936 147.541L187.542 145.38C187.693 145.176 187.984 145.176 188.033 145.38L188.561 147.541L188.73 147.692L191.029 148.039C191.246 148.071 191.267 148.347 191.064 148.505L188.919 150.189L188.779 150.431L188.594 152.807C188.577 153.031 188.299 153.202 188.125 153.096L186.271 151.973H186.016Z" fill="#F8990F"/>
<path d="M197.902 151.973L195.488 153.096C195.26 153.202 195.069 153.031 195.162 152.807L196.163 150.431L196.144 150.189L194.838 148.505C194.714 148.347 194.872 148.071 195.106 148.039L197.578 147.692L197.823 147.541L199.428 145.38C199.579 145.176 199.87 145.176 199.919 145.38L200.447 147.541L200.616 147.692L202.915 148.039C203.132 148.071 203.154 148.347 202.951 148.505L200.805 150.189L200.665 150.431L200.48 152.807C200.464 153.031 200.185 153.202 200.011 153.096L198.156 151.973H197.902Z" fill="#F8990F"/>
<path d="M209.787 151.973L207.374 153.096C207.146 153.202 206.955 153.031 207.048 152.807L208.049 150.431L208.03 150.189L206.723 148.505C206.601 148.347 206.758 148.071 206.992 148.039L209.464 147.692C209.557 147.679 209.647 147.622 209.707 147.541L211.313 145.38C211.465 145.176 211.755 145.176 211.805 145.38L212.333 147.541L212.502 147.692L214.802 148.039C215.018 148.071 215.038 148.347 214.837 148.505L212.69 150.189L212.551 150.431L212.367 152.807C212.348 153.031 212.072 153.202 211.898 153.096L210.042 151.973H209.787Z" fill="#F8990F"/>
<path d="M221.674 151.973L219.26 153.096C219.032 153.202 218.841 153.031 218.935 152.807L219.934 150.431L219.917 150.189L218.609 148.505C218.486 148.347 218.645 148.071 218.878 148.039L221.35 147.692C221.443 147.679 221.534 147.622 221.593 147.541L223.2 145.38C223.351 145.176 223.64 145.176 223.69 145.38L224.219 147.541L224.388 147.692L226.688 148.039C226.904 148.071 226.925 148.347 226.723 148.505L224.576 150.189L224.437 150.431L224.252 152.807C224.235 153.031 223.958 153.202 223.783 153.096L221.929 151.973H221.674Z" fill="#C4D8DA"/>
<path d="M90.678 117.57C90.678 121.153 88.5941 124.057 86.0238 124.057C83.4535 124.057 81.3696 121.153 81.3696 117.57C81.3696 113.987 83.4535 111.083 86.0238 111.083C88.5941 111.083 90.678 113.987 90.678 117.57Z" fill="#2A347B"/>
<path d="M86.3094 118.512C86.3105 118.513 86.5112 118.736 86.8655 119.133C88.1035 120.521 91.2053 124.029 93.9896 127.427C95.3813 129.126 96.6951 130.8 97.6515 132.156C98.1287 132.834 98.5179 133.434 98.778 133.906C98.907 134.143 99.0043 134.347 99.0647 134.502C99.1251 134.657 99.1415 134.77 99.1394 134.776C99.1343 135.084 99.0432 135.261 98.865 135.449C98.5977 135.725 98.0591 135.944 97.4785 136.056C96.8999 136.172 96.2957 136.197 95.9138 136.197C95.7858 136.197 95.6823 136.194 95.6117 136.192L95.5093 136.187L95.4345 137.312C95.4448 137.313 95.626 137.326 95.9138 137.326C96.4882 137.324 97.4754 137.284 98.3929 136.981C98.8517 136.827 99.3012 136.606 99.6627 136.246C100.025 135.892 100.273 135.37 100.268 134.776C100.264 134.502 100.186 134.268 100.078 134.002C99.6699 133.028 98.6817 131.601 97.4007 129.912C93.5667 124.873 87.1522 117.763 87.1471 117.757L86.3094 118.512Z" fill="#2A347B"/>
<path d="M96.4597 136.75C96.4597 137.685 95.7019 138.443 94.767 138.443C93.8331 138.443 93.0753 137.685 93.0753 136.75C93.0753 135.815 93.8331 135.057 94.767 135.057C95.7019 135.057 96.4597 135.815 96.4597 136.75Z" fill="#2A347B"/>
<path d="M63.6581 305.126C68.2662 313.075 82.7223 318.88 99.8542 318.88C116.985 318.88 131.441 313.075 136.049 305.126H63.6581Z" fill="#4B4EA5"/>
<path d="M161.386 264.346L152.699 304.402H147.391L152.216 265.311L161.386 264.346Z" fill="#ADA0D7"/>
<path d="M177.311 267.724H99.5491V258.071H169.59C173.854 258.071 177.311 261.529 177.311 265.793V267.724Z" fill="#7B7AC5"/>
<path d="M35.9089 300.057L17.0893 209.543C16.3416 205.947 19.0865 202.572 22.7594 202.572H85.0367C88.4672 202.572 91.4266 204.98 92.125 208.338L111.195 300.057" fill="#ADA0D7"/>
<path d="M163.807 309.987H45.5401C41.5485 309.987 38.0365 307.352 36.9189 303.522L35.9089 300.057H163.807V309.987Z" fill="#ADA0D7"/>
<path d="M105.645 398.509H96.2343V314.536H105.645V398.509Z" fill="#E7E8F6"/>
<path d="M105.645 330.1L96.2343 337.702V314.536H105.645V330.1Z" fill="#4B4EA5"/>
<path d="M105.356 385.995H97.6127L62.334 400H140.634L105.356 385.995Z" fill="#E7E8F6"/>
<path d="M25.3838 209.277H81.3635V208.253H25.3838V209.277Z" fill="#4B4EA5"/>
<path d="M86.6649 215.349L96.2221 263.478L97.2267 263.28L87.6684 215.15" fill="#4B4EA5"/>
<path d="M97.924 271.987L99.9721 285.981L100.986 285.834L98.9378 271.839" fill="#4B4EA5"/>
<path d="M359.396 127.867H314.32C311.995 127.867 310.219 125.79 310.583 123.493L310.924 121.333C311.214 119.493 312.799 118.139 314.661 118.139H359.737C362.062 118.139 363.837 120.215 363.474 122.512L363.133 124.673C362.843 126.512 361.258 127.867 359.396 127.867Z" fill="#D1E8F8"/>
<path d="M316.207 124.112H355.12V122.064H316.207V124.112Z" fill="white"/>
<path d="M195.206 71.8865H182.918C177.074 71.8865 171.329 76.6247 170.087 82.4678C168.845 88.3129 172.575 93.05 178.419 93.05H181.087C184.068 100.108 191.108 99.1942 191.108 99.1942C189.778 96.5409 189.493 94.4171 189.502 93.05H190.708C196.552 93.05 202.297 88.3129 203.539 82.4678C204.781 76.6247 201.05 71.8865 195.206 71.8865Z" fill="#F14946"/>
<path d="M177.69 81.4437H189.295V79.3957H177.69V81.4437Z" fill="white"/>
<path d="M176.711 86.0519H195.57V84.0038H176.711V86.0519Z" fill="white"/>
</svg>
