<svg width="80" height="80" viewBox="0 0 80 80" fill="none" xmlns="http://www.w3.org/2000/svg">
<circle cx="40" cy="40" r="40" fill="#0A86FF" fill-opacity="0.2"/>
<path d="M48.8516 44.4531C47.1148 44.4531 45.5843 45.3075 44.623 46.6067L36.3119 42.351C36.4499 41.8807 36.5469 41.3932 36.5469 40.8789C36.5469 40.1813 36.4038 39.5181 36.1568 38.908L44.8547 33.674C45.8227 34.81 47.2454 35.5469 48.8516 35.5469C51.7595 35.5469 54.125 33.1814 54.125 30.2734C54.125 27.3655 51.7595 25 48.8516 25C45.9436 25 43.5781 27.3655 43.5781 30.2734C43.5781 30.9436 43.7161 31.5793 43.945 32.1694L35.2212 37.4188C34.254 36.3166 32.8518 35.6055 31.2734 35.6055C28.3655 35.6055 26 37.971 26 40.8789C26 43.7869 28.3655 46.1523 31.2734 46.1523C33.0389 46.1523 34.5952 45.2729 35.5528 43.9371L43.8366 48.179C43.684 48.6716 43.5781 49.1846 43.5781 49.7266C43.5781 52.6345 45.9436 55 48.8516 55C51.7595 55 54.125 52.6345 54.125 49.7266C54.125 46.8186 51.7595 44.4531 48.8516 44.4531Z" fill="#0A86FF"/>
</svg>
