<svg width="74" height="30" viewBox="0 0 74 30" fill="none" xmlns="http://www.w3.org/2000/svg">
<path d="M66.8667 11.0156C65.3895 11.0156 65.5437 12.8311 65.4824 14.7694H67.9436C67.9436 12.5847 67.9436 11.0156 66.8667 11.0156ZM65.4824 17.9387C65.4824 19.6924 66.3437 20.0308 67.7899 20.0308C69.4516 20.0308 71.6973 19.5381 72.559 19.3844V23.6309C71.8823 23.8772 69.8208 24.4612 67.7899 24.4612C64.1283 24.4612 59.6664 23.8767 59.6664 16.0616C59.6664 9.16922 63.1743 7.53851 66.8665 7.53851C70.6513 7.53851 73.3896 9.47697 73.3896 16V17.9387H65.4824ZM51.0491 11.8463C50.711 11.8463 50.0339 12.1232 49.6648 12.3389V20.2153C49.9414 20.308 50.4339 20.3695 50.6494 20.3695C51.6649 20.3695 52.2802 19.5078 52.2802 15.908C52.2799 12.2463 52.0028 11.8463 51.0491 11.8463ZM51.7258 24.4616C50.9874 24.4616 50.2182 24.2462 49.6645 24.123V30H43.8183V7.84627H48.5565L49.4183 8.86163C50.3105 8.06176 51.5723 7.53851 52.8953 7.53851C55.295 7.53851 58.1258 8.21531 58.1258 15.9075C58.1258 24.3388 53.8798 24.4616 51.7258 24.4616ZM38.4326 5.84636C36.802 5.84636 35.5405 4.52324 35.5405 2.92318C35.5405 1.32312 36.802 0 38.4326 0C40.0636 0 41.3251 1.32312 41.3251 2.92318C41.3251 4.52324 40.0636 5.84636 38.4326 5.84636ZM35.5097 24.154V7.84627H41.3559V24.154H35.5097ZM31.9699 12.431C31.0468 12.431 30.339 12.8003 30.0312 12.9849V24.154H24.1852V7.84627H28.8314L29.6929 9.41535C30.0312 8.39999 30.9543 7.53834 32.3083 7.53834C33.2314 7.53834 33.8467 7.72303 34.1233 7.87674V12.738C33.5388 12.5847 32.7697 12.431 31.9699 12.431ZM20.8609 20.0309C21.2301 20.0309 22.5225 19.8466 22.9529 19.7846V23.9385C22.0609 24.1536 20.0915 24.4616 18.7993 24.4616C17.1377 24.4616 14.0301 24.2772 14.0301 19.7541V11.5695H11.8763V7.84627H14.0305L14.7689 4.15403L19.8765 2.92334V7.84643H22.9534L22.1843 11.5696H19.8767V18.7081C19.8763 19.8154 20.2147 20.0309 20.8609 20.0309ZM5.75154 12.554C5.75154 13.2002 6.18253 13.4155 7.19773 13.877L7.81324 14.1541C9.25926 14.8002 11.259 15.8464 11.259 18.9235C11.259 23.8464 7.59741 24.4617 4.98215 24.4617C3.28983 24.4617 1.50525 24.0617 0.305203 23.6928V19.4772C1.35121 19.7546 3.16693 20.1848 3.96663 20.1848C4.85892 20.1848 5.53588 20.0621 5.53588 19.2619C5.53588 18.6465 5.10506 18.3697 4.15131 17.9391L3.41273 17.6005C2.02833 16.9542 0.0588989 15.8469 0.0588989 12.8621C0.0588989 8.49275 3.47419 7.53918 6.33591 7.53918C8.48987 7.53918 9.90524 8.03129 10.6435 8.3084V12.4006C9.78184 12.1239 8.0284 11.7545 6.98223 11.7545C6.27463 11.7542 5.75154 11.9385 5.75154 12.554Z" fill="#706D6E"/>
</svg>
